<svg width="1600" height="1000" viewBox="0 0 1600 1000" fill="none" xmlns="http://www.w3.org/2000/svg">
  <rect width="1600" height="1000" fill="#F3E9DA"/>
  <rect x="176" y="120" width="1248" height="760" rx="42" fill="#82553A"/>
  <rect x="228" y="174" width="1144" height="652" rx="28" fill="#EAD7BE"/>
  <rect x="268" y="214" width="240" height="182" rx="18" fill="#F8F2E9"/>
  <rect x="532" y="214" width="240" height="182" rx="18" fill="#F8F2E9"/>
  <rect x="796" y="214" width="240" height="182" rx="18" fill="#F8F2E9"/>
  <rect x="1060" y="214" width="240" height="182" rx="18" fill="#F8F2E9"/>
  <rect x="268" y="420" width="240" height="182" rx="18" fill="#F8F2E9"/>
  <rect x="532" y="420" width="240" height="182" rx="18" fill="#F8F2E9"/>
  <rect x="796" y="420" width="240" height="182" rx="18" fill="#F8F2E9"/>
  <rect x="1060" y="420" width="240" height="182" rx="18" fill="#F8F2E9"/>
  <rect x="268" y="626" width="1032" height="140" rx="18" fill="#F8F2E9"/>
  <g fill="#7D7F81">
    <circle cx="336" cy="286" r="28"/>
    <rect x="360" y="276" width="82" height="20" rx="10"/>
    <circle cx="596" cy="330" r="24"/>
    <rect x="616" y="322" width="92" height="16" rx="8"/>
    <circle cx="874" cy="286" r="26"/>
    <rect x="896" y="278" width="84" height="16" rx="8"/>
    <circle cx="1138" cy="326" r="22"/>
    <rect x="1158" y="318" width="74" height="16" rx="8"/>
    <circle cx="344" cy="512" r="22"/>
    <rect x="362" y="504" width="88" height="16" rx="8"/>
    <circle cx="618" cy="500" r="28"/>
    <rect x="642" y="490" width="88" height="20" rx="10"/>
    <circle cx="874" cy="534" r="24"/>
    <rect x="894" y="526" width="86" height="16" rx="8"/>
    <circle cx="1146" cy="514" r="26"/>
    <rect x="1168" y="506" width="84" height="16" rx="8"/>
  </g>
  <rect x="404" y="672" width="532" height="18" rx="9" fill="#D0BDA2"/>
  <rect x="404" y="712" width="418" height="18" rx="9" fill="#D0BDA2"/>
</svg>
