<svg width="1600" height="900" viewBox="0 0 1600 900" fill="none" xmlns="http://www.w3.org/2000/svg">
  <rect width="1600" height="900" fill="#F6EFE4"/>
  <circle cx="1240" cy="180" r="220" fill="#D6A642" fill-opacity="0.22"/>
  <circle cx="320" cy="720" r="260" fill="#BC4B2F" fill-opacity="0.14"/>
  <rect x="212" y="126" width="1176" height="648" rx="34" fill="#FFFDF9"/>
  <rect x="260" y="178" width="1080" height="544" rx="24" fill="#FFF7EF" stroke="#E8DCCB"/>
  <rect x="314" y="260" width="426" height="28" rx="14" fill="#BC4B2F"/>
  <rect x="314" y="320" width="786" height="18" rx="9" fill="#D9CBB9"/>
  <rect x="314" y="360" width="716" height="18" rx="9" fill="#D9CBB9"/>
  <rect x="314" y="400" width="748" height="18" rx="9" fill="#D9CBB9"/>
  <rect x="314" y="480" width="972" height="160" rx="28" fill="#F3E7D8"/>
  <rect x="356" y="526" width="258" height="22" rx="11" fill="#45654E"/>
  <rect x="356" y="568" width="884" height="18" rx="9" fill="#D9CBB9"/>
  <rect x="356" y="606" width="792" height="18" rx="9" fill="#D9CBB9"/>
</svg>
